<mxfile host="Electron" modified="2023-11-21T16:50:51.182Z" agent="Mozilla/5.0 (X11; Linux x86_64) AppleWebKit/537.36 (KHTML, like Gecko) draw.io/22.1.2 Chrome/114.0.5735.289 Electron/25.9.4 Safari/537.36" etag="4PSaoKFlmvdOjneifqss" version="22.1.2" type="device" pages="3">
  <diagram name="PointToPoint" id="EfSYu2DWovMZHn3nU1lR">
    <mxGraphModel dx="2181" dy="866" grid="1" gridSize="10" guides="1" tooltips="1" connect="1" arrows="1" fold="1" page="1" pageScale="1" pageWidth="827" pageHeight="1169" math="0" shadow="0">
      <root>
        <mxCell id="0" />
        <mxCell id="1" parent="0" />
        <mxCell id="vnAJVRi24mwDYkHVuYO2-1" value="TrajectoryBase" style="swimlane;fontStyle=1;align=center;verticalAlign=top;childLayout=stackLayout;horizontal=1;startSize=26;horizontalStack=0;resizeParent=1;resizeParentMax=0;resizeLast=0;collapsible=1;marginBottom=0;whiteSpace=wrap;html=1;dashed=1;" vertex="1" parent="1">
          <mxGeometry x="-510" y="140" width="200" height="164" as="geometry" />
        </mxCell>
        <mxCell id="vnAJVRi24mwDYkHVuYO2-2" value="- _dimensions : int" style="text;strokeColor=none;fillColor=none;align=left;verticalAlign=top;spacingLeft=4;spacingRight=4;overflow=hidden;rotatable=0;points=[[0,0.5],[1,0.5]];portConstraint=eastwest;whiteSpace=wrap;html=1;" vertex="1" parent="vnAJVRi24mwDYkHVuYO2-1">
          <mxGeometry y="26" width="200" height="26" as="geometry" />
        </mxCell>
        <mxCell id="vnAJVRi24mwDYkHVuYO2-3" value="# _endTime : float" style="text;strokeColor=none;fillColor=none;align=left;verticalAlign=top;spacingLeft=4;spacingRight=4;overflow=hidden;rotatable=0;points=[[0,0.5],[1,0.5]];portConstraint=eastwest;whiteSpace=wrap;html=1;" vertex="1" parent="vnAJVRi24mwDYkHVuYO2-1">
          <mxGeometry y="52" width="200" height="26" as="geometry" />
        </mxCell>
        <mxCell id="vnAJVRi24mwDYkHVuYO2-4" value="# _startTime : float" style="text;strokeColor=none;fillColor=none;align=left;verticalAlign=top;spacingLeft=4;spacingRight=4;overflow=hidden;rotatable=0;points=[[0,0.5],[1,0.5]];portConstraint=eastwest;whiteSpace=wrap;html=1;" vertex="1" parent="vnAJVRi24mwDYkHVuYO2-1">
          <mxGeometry y="78" width="200" height="26" as="geometry" />
        </mxCell>
        <mxCell id="vnAJVRi24mwDYkHVuYO2-5" value="" style="line;strokeWidth=1;fillColor=none;align=left;verticalAlign=middle;spacingTop=-1;spacingLeft=3;spacingRight=3;rotatable=0;labelPosition=right;points=[];portConstraint=eastwest;strokeColor=inherit;" vertex="1" parent="vnAJVRi24mwDYkHVuYO2-1">
          <mxGeometry y="104" width="200" height="8" as="geometry" />
        </mxCell>
        <mxCell id="vnAJVRi24mwDYkHVuYO2-6" value="+ query_position(float) : vector = 0" style="text;strokeColor=none;fillColor=none;align=left;verticalAlign=top;spacingLeft=4;spacingRight=4;overflow=hidden;rotatable=0;points=[[0,0.5],[1,0.5]];portConstraint=eastwest;whiteSpace=wrap;html=1;" vertex="1" parent="vnAJVRi24mwDYkHVuYO2-1">
          <mxGeometry y="112" width="200" height="26" as="geometry" />
        </mxCell>
        <mxCell id="vnAJVRi24mwDYkHVuYO2-7" value="+ query_state(float) : State = 0" style="text;strokeColor=none;fillColor=none;align=left;verticalAlign=top;spacingLeft=4;spacingRight=4;overflow=hidden;rotatable=0;points=[[0,0.5],[1,0.5]];portConstraint=eastwest;whiteSpace=wrap;html=1;" vertex="1" parent="vnAJVRi24mwDYkHVuYO2-1">
          <mxGeometry y="138" width="200" height="26" as="geometry" />
        </mxCell>
        <mxCell id="vnAJVRi24mwDYkHVuYO2-8" value="Polynomial" style="swimlane;fontStyle=1;align=center;verticalAlign=top;childLayout=stackLayout;horizontal=1;startSize=26;horizontalStack=0;resizeParent=1;resizeParentMax=0;resizeLast=0;collapsible=1;marginBottom=0;whiteSpace=wrap;html=1;" vertex="1" parent="1">
          <mxGeometry x="-800" y="40" width="180" height="138" as="geometry" />
        </mxCell>
        <mxCell id="vnAJVRi24mwDYkHVuYO2-9" value="- _order : int" style="text;strokeColor=none;fillColor=none;align=left;verticalAlign=top;spacingLeft=4;spacingRight=4;overflow=hidden;rotatable=0;points=[[0,0.5],[1,0.5]];portConstraint=eastwest;whiteSpace=wrap;html=1;" vertex="1" parent="vnAJVRi24mwDYkHVuYO2-8">
          <mxGeometry y="26" width="180" height="26" as="geometry" />
        </mxCell>
        <mxCell id="vnAJVRi24mwDYkHVuYO2-10" value="- _coefficients : array" style="text;strokeColor=none;fillColor=none;align=left;verticalAlign=top;spacingLeft=4;spacingRight=4;overflow=hidden;rotatable=0;points=[[0,0.5],[1,0.5]];portConstraint=eastwest;whiteSpace=wrap;html=1;" vertex="1" parent="vnAJVRi24mwDYkHVuYO2-8">
          <mxGeometry y="52" width="180" height="26" as="geometry" />
        </mxCell>
        <mxCell id="vnAJVRi24mwDYkHVuYO2-11" value="" style="line;strokeWidth=1;fillColor=none;align=left;verticalAlign=middle;spacingTop=-1;spacingLeft=3;spacingRight=3;rotatable=0;labelPosition=right;points=[];portConstraint=eastwest;strokeColor=inherit;" vertex="1" parent="vnAJVRi24mwDYkHVuYO2-8">
          <mxGeometry y="78" width="180" height="8" as="geometry" />
        </mxCell>
        <mxCell id="vnAJVRi24mwDYkHVuYO2-12" value="+ query_position(float) : Vector" style="text;strokeColor=none;fillColor=none;align=left;verticalAlign=top;spacingLeft=4;spacingRight=4;overflow=hidden;rotatable=0;points=[[0,0.5],[1,0.5]];portConstraint=eastwest;whiteSpace=wrap;html=1;" vertex="1" parent="vnAJVRi24mwDYkHVuYO2-8">
          <mxGeometry y="86" width="180" height="26" as="geometry" />
        </mxCell>
        <mxCell id="vnAJVRi24mwDYkHVuYO2-13" value="+ query_state(float) : State" style="text;strokeColor=none;fillColor=none;align=left;verticalAlign=top;spacingLeft=4;spacingRight=4;overflow=hidden;rotatable=0;points=[[0,0.5],[1,0.5]];portConstraint=eastwest;whiteSpace=wrap;html=1;" vertex="1" parent="vnAJVRi24mwDYkHVuYO2-8">
          <mxGeometry y="112" width="180" height="26" as="geometry" />
        </mxCell>
        <mxCell id="vnAJVRi24mwDYkHVuYO2-14" value="TrapezoidalVelocity" style="swimlane;fontStyle=1;align=center;verticalAlign=top;childLayout=stackLayout;horizontal=1;startSize=26;horizontalStack=0;resizeParent=1;resizeParentMax=0;resizeLast=0;collapsible=1;marginBottom=0;whiteSpace=wrap;html=1;" vertex="1" parent="1">
          <mxGeometry x="-800" y="200" width="180" height="294" as="geometry" />
        </mxCell>
        <mxCell id="vnAJVRi24mwDYkHVuYO2-15" value="- _coastDistance : float" style="text;strokeColor=none;fillColor=none;align=left;verticalAlign=top;spacingLeft=4;spacingRight=4;overflow=hidden;rotatable=0;points=[[0,0.5],[1,0.5]];portConstraint=eastwest;whiteSpace=wrap;html=1;" vertex="1" parent="vnAJVRi24mwDYkHVuYO2-14">
          <mxGeometry y="26" width="180" height="26" as="geometry" />
        </mxCell>
        <mxCell id="vnAJVRi24mwDYkHVuYO2-16" value="- _coastTime : float" style="text;strokeColor=none;fillColor=none;align=left;verticalAlign=top;spacingLeft=4;spacingRight=4;overflow=hidden;rotatable=0;points=[[0,0.5],[1,0.5]];portConstraint=eastwest;whiteSpace=wrap;html=1;" vertex="1" parent="vnAJVRi24mwDYkHVuYO2-14">
          <mxGeometry y="52" width="180" height="26" as="geometry" />
        </mxCell>
        <mxCell id="vnAJVRi24mwDYkHVuYO2-17" value="- _endPoint : Vector" style="text;strokeColor=none;fillColor=none;align=left;verticalAlign=top;spacingLeft=4;spacingRight=4;overflow=hidden;rotatable=0;points=[[0,0.5],[1,0.5]];portConstraint=eastwest;whiteSpace=wrap;html=1;" vertex="1" parent="vnAJVRi24mwDYkHVuYO2-14">
          <mxGeometry y="78" width="180" height="26" as="geometry" />
        </mxCell>
        <mxCell id="vnAJVRi24mwDYkHVuYO2-18" value="- _normalisedAccel : float" style="text;strokeColor=none;fillColor=none;align=left;verticalAlign=top;spacingLeft=4;spacingRight=4;overflow=hidden;rotatable=0;points=[[0,0.5],[1,0.5]];portConstraint=eastwest;whiteSpace=wrap;html=1;" vertex="1" parent="vnAJVRi24mwDYkHVuYO2-14">
          <mxGeometry y="104" width="180" height="26" as="geometry" />
        </mxCell>
        <mxCell id="vnAJVRi24mwDYkHVuYO2-19" value="- _normalisedVelocity : float" style="text;strokeColor=none;fillColor=none;align=left;verticalAlign=top;spacingLeft=4;spacingRight=4;overflow=hidden;rotatable=0;points=[[0,0.5],[1,0.5]];portConstraint=eastwest;whiteSpace=wrap;html=1;" vertex="1" parent="vnAJVRi24mwDYkHVuYO2-14">
          <mxGeometry y="130" width="180" height="26" as="geometry" />
        </mxCell>
        <mxCell id="vnAJVRi24mwDYkHVuYO2-20" value="- _rampDistance : float" style="text;strokeColor=none;fillColor=none;align=left;verticalAlign=top;spacingLeft=4;spacingRight=4;overflow=hidden;rotatable=0;points=[[0,0.5],[1,0.5]];portConstraint=eastwest;whiteSpace=wrap;html=1;" vertex="1" parent="vnAJVRi24mwDYkHVuYO2-14">
          <mxGeometry y="156" width="180" height="26" as="geometry" />
        </mxCell>
        <mxCell id="vnAJVRi24mwDYkHVuYO2-21" value="- _rampTime : float" style="text;strokeColor=none;fillColor=none;align=left;verticalAlign=top;spacingLeft=4;spacingRight=4;overflow=hidden;rotatable=0;points=[[0,0.5],[1,0.5]];portConstraint=eastwest;whiteSpace=wrap;html=1;" vertex="1" parent="vnAJVRi24mwDYkHVuYO2-14">
          <mxGeometry y="182" width="180" height="26" as="geometry" />
        </mxCell>
        <mxCell id="vnAJVRi24mwDYkHVuYO2-22" value="- _startPoint : Vector" style="text;strokeColor=none;fillColor=none;align=left;verticalAlign=top;spacingLeft=4;spacingRight=4;overflow=hidden;rotatable=0;points=[[0,0.5],[1,0.5]];portConstraint=eastwest;whiteSpace=wrap;html=1;" vertex="1" parent="vnAJVRi24mwDYkHVuYO2-14">
          <mxGeometry y="208" width="180" height="26" as="geometry" />
        </mxCell>
        <mxCell id="vnAJVRi24mwDYkHVuYO2-23" value="" style="line;strokeWidth=1;fillColor=none;align=left;verticalAlign=middle;spacingTop=-1;spacingLeft=3;spacingRight=3;rotatable=0;labelPosition=right;points=[];portConstraint=eastwest;strokeColor=inherit;" vertex="1" parent="vnAJVRi24mwDYkHVuYO2-14">
          <mxGeometry y="234" width="180" height="8" as="geometry" />
        </mxCell>
        <mxCell id="vnAJVRi24mwDYkHVuYO2-24" value="+ query_position(float) : Vector" style="text;strokeColor=none;fillColor=none;align=left;verticalAlign=top;spacingLeft=4;spacingRight=4;overflow=hidden;rotatable=0;points=[[0,0.5],[1,0.5]];portConstraint=eastwest;whiteSpace=wrap;html=1;" vertex="1" parent="vnAJVRi24mwDYkHVuYO2-14">
          <mxGeometry y="242" width="180" height="26" as="geometry" />
        </mxCell>
        <mxCell id="vnAJVRi24mwDYkHVuYO2-25" value="+ query_state(flloat) : State" style="text;strokeColor=none;fillColor=none;align=left;verticalAlign=top;spacingLeft=4;spacingRight=4;overflow=hidden;rotatable=0;points=[[0,0.5],[1,0.5]];portConstraint=eastwest;whiteSpace=wrap;html=1;" vertex="1" parent="vnAJVRi24mwDYkHVuYO2-14">
          <mxGeometry y="268" width="180" height="26" as="geometry" />
        </mxCell>
        <mxCell id="vnAJVRi24mwDYkHVuYO2-26" value="State" style="swimlane;fontStyle=1;align=center;verticalAlign=top;childLayout=stackLayout;horizontal=1;startSize=26;horizontalStack=0;resizeParent=1;resizeParentMax=0;resizeLast=0;collapsible=1;marginBottom=0;whiteSpace=wrap;html=1;" vertex="1" parent="1">
          <mxGeometry x="-480" y="360" width="130" height="104" as="geometry" />
        </mxCell>
        <mxCell id="vnAJVRi24mwDYkHVuYO2-27" value="+ position : vector" style="text;strokeColor=none;fillColor=none;align=left;verticalAlign=top;spacingLeft=4;spacingRight=4;overflow=hidden;rotatable=0;points=[[0,0.5],[1,0.5]];portConstraint=eastwest;whiteSpace=wrap;html=1;" vertex="1" parent="vnAJVRi24mwDYkHVuYO2-26">
          <mxGeometry y="26" width="130" height="26" as="geometry" />
        </mxCell>
        <mxCell id="vnAJVRi24mwDYkHVuYO2-28" value="+ velocity : vector" style="text;strokeColor=none;fillColor=none;align=left;verticalAlign=top;spacingLeft=4;spacingRight=4;overflow=hidden;rotatable=0;points=[[0,0.5],[1,0.5]];portConstraint=eastwest;whiteSpace=wrap;html=1;" vertex="1" parent="vnAJVRi24mwDYkHVuYO2-26">
          <mxGeometry y="52" width="130" height="26" as="geometry" />
        </mxCell>
        <mxCell id="vnAJVRi24mwDYkHVuYO2-29" value="+ acceleration : vector" style="text;strokeColor=none;fillColor=none;align=left;verticalAlign=top;spacingLeft=4;spacingRight=4;overflow=hidden;rotatable=0;points=[[0,0.5],[1,0.5]];portConstraint=eastwest;whiteSpace=wrap;html=1;" vertex="1" parent="vnAJVRi24mwDYkHVuYO2-26">
          <mxGeometry y="78" width="130" height="26" as="geometry" />
        </mxCell>
        <mxCell id="vnAJVRi24mwDYkHVuYO2-30" value="Use" style="endArrow=open;endSize=12;dashed=1;html=1;rounded=0;" edge="1" parent="1" source="vnAJVRi24mwDYkHVuYO2-1" target="vnAJVRi24mwDYkHVuYO2-26">
          <mxGeometry width="160" relative="1" as="geometry">
            <mxPoint x="-450" y="480" as="sourcePoint" />
            <mxPoint x="-290" y="480" as="targetPoint" />
          </mxGeometry>
        </mxCell>
        <mxCell id="vnAJVRi24mwDYkHVuYO2-32" value="Extends" style="endArrow=block;endSize=16;endFill=0;html=1;rounded=0;" edge="1" parent="1" source="vnAJVRi24mwDYkHVuYO2-8" target="vnAJVRi24mwDYkHVuYO2-1">
          <mxGeometry x="-0.2676" y="-1" width="160" relative="1" as="geometry">
            <mxPoint x="-630" y="410" as="sourcePoint" />
            <mxPoint x="-470" y="410" as="targetPoint" />
            <mxPoint as="offset" />
          </mxGeometry>
        </mxCell>
        <mxCell id="vnAJVRi24mwDYkHVuYO2-33" value="Extends" style="endArrow=block;endSize=16;endFill=0;html=1;rounded=0;" edge="1" parent="1" source="vnAJVRi24mwDYkHVuYO2-14" target="vnAJVRi24mwDYkHVuYO2-1">
          <mxGeometry x="-0.2676" y="-1" width="160" relative="1" as="geometry">
            <mxPoint x="-372" y="318" as="sourcePoint" />
            <mxPoint x="-419" y="380" as="targetPoint" />
            <mxPoint as="offset" />
          </mxGeometry>
        </mxCell>
      </root>
    </mxGraphModel>
  </diagram>
  <diagram id="Gxkotx1kxS1C0lFwXU1V" name="Waypoints">
    <mxGraphModel dx="2181" dy="866" grid="1" gridSize="10" guides="1" tooltips="1" connect="1" arrows="1" fold="1" page="1" pageScale="1" pageWidth="827" pageHeight="1169" math="0" shadow="0">
      <root>
        <mxCell id="0" />
        <mxCell id="1" parent="0" />
        <mxCell id="0T3obRGXh_1cVIc16mlH-1" value="Spline" style="swimlane;fontStyle=1;align=center;verticalAlign=top;childLayout=stackLayout;horizontal=1;startSize=26;horizontalStack=0;resizeParent=1;resizeParentMax=0;resizeLast=0;collapsible=1;marginBottom=0;whiteSpace=wrap;html=1;" vertex="1" parent="1">
          <mxGeometry x="-780" y="50" width="120" height="52" as="geometry" />
        </mxCell>
        <mxCell id="0T3obRGXh_1cVIc16mlH-2" value="MultiTrapezoid" style="swimlane;fontStyle=1;align=center;verticalAlign=top;childLayout=stackLayout;horizontal=1;startSize=26;horizontalStack=0;resizeParent=1;resizeParentMax=0;resizeLast=0;collapsible=1;marginBottom=0;whiteSpace=wrap;html=1;" vertex="1" parent="1">
          <mxGeometry x="-780" y="360" width="120" height="52" as="geometry" />
        </mxCell>
        <mxCell id="0T3obRGXh_1cVIc16mlH-3" value="Waypoints" style="swimlane;fontStyle=1;align=center;verticalAlign=top;childLayout=stackLayout;horizontal=1;startSize=26;horizontalStack=0;resizeParent=1;resizeParentMax=0;resizeLast=0;collapsible=1;marginBottom=0;whiteSpace=wrap;html=1;dashed=1;" vertex="1" parent="1">
          <mxGeometry x="-623" y="152" width="210" height="164" as="geometry" />
        </mxCell>
        <mxCell id="0T3obRGXh_1cVIc16mlH-4" value="- _trajectory : array" style="text;strokeColor=none;fillColor=none;align=left;verticalAlign=top;spacingLeft=4;spacingRight=4;overflow=hidden;rotatable=0;points=[[0,0.5],[1,0.5]];portConstraint=eastwest;whiteSpace=wrap;html=1;" vertex="1" parent="0T3obRGXh_1cVIc16mlH-3">
          <mxGeometry y="26" width="210" height="26" as="geometry" />
        </mxCell>
        <mxCell id="0T3obRGXh_1cVIc16mlH-5" value="- _numberOfPoints : int" style="text;strokeColor=none;fillColor=none;align=left;verticalAlign=top;spacingLeft=4;spacingRight=4;overflow=hidden;rotatable=0;points=[[0,0.5],[1,0.5]];portConstraint=eastwest;whiteSpace=wrap;html=1;" vertex="1" parent="0T3obRGXh_1cVIc16mlH-3">
          <mxGeometry y="52" width="210" height="26" as="geometry" />
        </mxCell>
        <mxCell id="0T3obRGXh_1cVIc16mlH-6" value="- _times : float array" style="text;strokeColor=none;fillColor=none;align=left;verticalAlign=top;spacingLeft=4;spacingRight=4;overflow=hidden;rotatable=0;points=[[0,0.5],[1,0.5]];portConstraint=eastwest;whiteSpace=wrap;html=1;" vertex="1" parent="0T3obRGXh_1cVIc16mlH-3">
          <mxGeometry y="78" width="210" height="26" as="geometry" />
        </mxCell>
        <mxCell id="0T3obRGXh_1cVIc16mlH-7" value="" style="line;strokeWidth=1;fillColor=none;align=left;verticalAlign=middle;spacingTop=-1;spacingLeft=3;spacingRight=3;rotatable=0;labelPosition=right;points=[];portConstraint=eastwest;strokeColor=inherit;" vertex="1" parent="0T3obRGXh_1cVIc16mlH-3">
          <mxGeometry y="104" width="210" height="8" as="geometry" />
        </mxCell>
        <mxCell id="0T3obRGXh_1cVIc16mlH-8" value="+ query_position(float) : Vector" style="text;strokeColor=none;fillColor=none;align=left;verticalAlign=top;spacingLeft=4;spacingRight=4;overflow=hidden;rotatable=0;points=[[0,0.5],[1,0.5]];portConstraint=eastwest;whiteSpace=wrap;html=1;" vertex="1" parent="0T3obRGXh_1cVIc16mlH-3">
          <mxGeometry y="112" width="210" height="26" as="geometry" />
        </mxCell>
        <mxCell id="0T3obRGXh_1cVIc16mlH-9" value="+ query_state(float) : State" style="text;strokeColor=none;fillColor=none;align=left;verticalAlign=top;spacingLeft=4;spacingRight=4;overflow=hidden;rotatable=0;points=[[0,0.5],[1,0.5]];portConstraint=eastwest;whiteSpace=wrap;html=1;" vertex="1" parent="0T3obRGXh_1cVIc16mlH-3">
          <mxGeometry y="138" width="210" height="26" as="geometry" />
        </mxCell>
        <mxCell id="0T3obRGXh_1cVIc16mlH-10" value="Extends" style="endArrow=block;endSize=16;endFill=0;html=1;rounded=0;edgeStyle=orthogonalEdgeStyle;" edge="1" parent="1" source="0T3obRGXh_1cVIc16mlH-1" target="0T3obRGXh_1cVIc16mlH-3">
          <mxGeometry x="0.515" width="160" relative="1" as="geometry">
            <mxPoint x="-625" y="390" as="sourcePoint" />
            <mxPoint x="-465" y="390" as="targetPoint" />
            <Array as="points">
              <mxPoint x="-720" y="240" />
            </Array>
            <mxPoint as="offset" />
          </mxGeometry>
        </mxCell>
        <mxCell id="0T3obRGXh_1cVIc16mlH-11" value="Extends" style="endArrow=block;endSize=16;endFill=0;html=1;rounded=0;edgeStyle=orthogonalEdgeStyle;" edge="1" parent="1" source="0T3obRGXh_1cVIc16mlH-2" target="0T3obRGXh_1cVIc16mlH-3">
          <mxGeometry x="0.4746" width="160" relative="1" as="geometry">
            <mxPoint x="-344" y="161" as="sourcePoint" />
            <mxPoint x="-425" y="209" as="targetPoint" />
            <Array as="points">
              <mxPoint x="-720" y="240" />
            </Array>
            <mxPoint as="offset" />
          </mxGeometry>
        </mxCell>
        <mxCell id="6ZcL2C2GrnRnfTAZ2OoG-1" value="TrajectoryBase" style="swimlane;fontStyle=1;align=center;verticalAlign=top;childLayout=stackLayout;horizontal=1;startSize=26;horizontalStack=0;resizeParent=1;resizeParentMax=0;resizeLast=0;collapsible=1;marginBottom=0;whiteSpace=wrap;html=1;dashed=1;" vertex="1" collapsed="1" parent="1">
          <mxGeometry x="-390" y="219" width="130" height="30" as="geometry">
            <mxRectangle x="-460" y="680" width="200" height="164" as="alternateBounds" />
          </mxGeometry>
        </mxCell>
        <mxCell id="6ZcL2C2GrnRnfTAZ2OoG-2" value="- _dimensions : int" style="text;strokeColor=none;fillColor=none;align=left;verticalAlign=top;spacingLeft=4;spacingRight=4;overflow=hidden;rotatable=0;points=[[0,0.5],[1,0.5]];portConstraint=eastwest;whiteSpace=wrap;html=1;" vertex="1" parent="6ZcL2C2GrnRnfTAZ2OoG-1">
          <mxGeometry y="26" width="200" height="26" as="geometry" />
        </mxCell>
        <mxCell id="6ZcL2C2GrnRnfTAZ2OoG-3" value="# _endTime : float" style="text;strokeColor=none;fillColor=none;align=left;verticalAlign=top;spacingLeft=4;spacingRight=4;overflow=hidden;rotatable=0;points=[[0,0.5],[1,0.5]];portConstraint=eastwest;whiteSpace=wrap;html=1;" vertex="1" parent="6ZcL2C2GrnRnfTAZ2OoG-1">
          <mxGeometry y="52" width="200" height="26" as="geometry" />
        </mxCell>
        <mxCell id="6ZcL2C2GrnRnfTAZ2OoG-4" value="# _startTime : float" style="text;strokeColor=none;fillColor=none;align=left;verticalAlign=top;spacingLeft=4;spacingRight=4;overflow=hidden;rotatable=0;points=[[0,0.5],[1,0.5]];portConstraint=eastwest;whiteSpace=wrap;html=1;" vertex="1" parent="6ZcL2C2GrnRnfTAZ2OoG-1">
          <mxGeometry y="78" width="200" height="26" as="geometry" />
        </mxCell>
        <mxCell id="6ZcL2C2GrnRnfTAZ2OoG-5" value="" style="line;strokeWidth=1;fillColor=none;align=left;verticalAlign=middle;spacingTop=-1;spacingLeft=3;spacingRight=3;rotatable=0;labelPosition=right;points=[];portConstraint=eastwest;strokeColor=inherit;" vertex="1" parent="6ZcL2C2GrnRnfTAZ2OoG-1">
          <mxGeometry y="104" width="200" height="8" as="geometry" />
        </mxCell>
        <mxCell id="6ZcL2C2GrnRnfTAZ2OoG-6" value="+ query_position(float) : vector = 0" style="text;strokeColor=none;fillColor=none;align=left;verticalAlign=top;spacingLeft=4;spacingRight=4;overflow=hidden;rotatable=0;points=[[0,0.5],[1,0.5]];portConstraint=eastwest;whiteSpace=wrap;html=1;" vertex="1" parent="6ZcL2C2GrnRnfTAZ2OoG-1">
          <mxGeometry y="112" width="200" height="26" as="geometry" />
        </mxCell>
        <mxCell id="6ZcL2C2GrnRnfTAZ2OoG-7" value="+ query_state(float) : State = 0" style="text;strokeColor=none;fillColor=none;align=left;verticalAlign=top;spacingLeft=4;spacingRight=4;overflow=hidden;rotatable=0;points=[[0,0.5],[1,0.5]];portConstraint=eastwest;whiteSpace=wrap;html=1;" vertex="1" parent="6ZcL2C2GrnRnfTAZ2OoG-1">
          <mxGeometry y="138" width="200" height="26" as="geometry" />
        </mxCell>
        <mxCell id="6ZcL2C2GrnRnfTAZ2OoG-8" value="Polynomial" style="swimlane;fontStyle=1;align=center;verticalAlign=top;childLayout=stackLayout;horizontal=1;startSize=26;horizontalStack=0;resizeParent=1;resizeParentMax=0;resizeLast=0;collapsible=1;marginBottom=0;whiteSpace=wrap;html=1;" vertex="1" collapsed="1" parent="1">
          <mxGeometry x="-550" y="61" width="100" height="30" as="geometry">
            <mxRectangle x="-750" y="580" width="180" height="138" as="alternateBounds" />
          </mxGeometry>
        </mxCell>
        <mxCell id="6ZcL2C2GrnRnfTAZ2OoG-9" value="- _order : int" style="text;strokeColor=none;fillColor=none;align=left;verticalAlign=top;spacingLeft=4;spacingRight=4;overflow=hidden;rotatable=0;points=[[0,0.5],[1,0.5]];portConstraint=eastwest;whiteSpace=wrap;html=1;" vertex="1" parent="6ZcL2C2GrnRnfTAZ2OoG-8">
          <mxGeometry y="26" width="180" height="26" as="geometry" />
        </mxCell>
        <mxCell id="6ZcL2C2GrnRnfTAZ2OoG-10" value="- _coefficients : array" style="text;strokeColor=none;fillColor=none;align=left;verticalAlign=top;spacingLeft=4;spacingRight=4;overflow=hidden;rotatable=0;points=[[0,0.5],[1,0.5]];portConstraint=eastwest;whiteSpace=wrap;html=1;" vertex="1" parent="6ZcL2C2GrnRnfTAZ2OoG-8">
          <mxGeometry y="52" width="180" height="26" as="geometry" />
        </mxCell>
        <mxCell id="6ZcL2C2GrnRnfTAZ2OoG-11" value="" style="line;strokeWidth=1;fillColor=none;align=left;verticalAlign=middle;spacingTop=-1;spacingLeft=3;spacingRight=3;rotatable=0;labelPosition=right;points=[];portConstraint=eastwest;strokeColor=inherit;" vertex="1" parent="6ZcL2C2GrnRnfTAZ2OoG-8">
          <mxGeometry y="78" width="180" height="8" as="geometry" />
        </mxCell>
        <mxCell id="6ZcL2C2GrnRnfTAZ2OoG-12" value="+ query_position(float) : Vector" style="text;strokeColor=none;fillColor=none;align=left;verticalAlign=top;spacingLeft=4;spacingRight=4;overflow=hidden;rotatable=0;points=[[0,0.5],[1,0.5]];portConstraint=eastwest;whiteSpace=wrap;html=1;" vertex="1" parent="6ZcL2C2GrnRnfTAZ2OoG-8">
          <mxGeometry y="86" width="180" height="26" as="geometry" />
        </mxCell>
        <mxCell id="6ZcL2C2GrnRnfTAZ2OoG-13" value="+ query_state(float) : State" style="text;strokeColor=none;fillColor=none;align=left;verticalAlign=top;spacingLeft=4;spacingRight=4;overflow=hidden;rotatable=0;points=[[0,0.5],[1,0.5]];portConstraint=eastwest;whiteSpace=wrap;html=1;" vertex="1" parent="6ZcL2C2GrnRnfTAZ2OoG-8">
          <mxGeometry y="112" width="180" height="26" as="geometry" />
        </mxCell>
        <mxCell id="6ZcL2C2GrnRnfTAZ2OoG-14" value="TrapezoidalVelocity" style="swimlane;fontStyle=1;align=center;verticalAlign=top;childLayout=stackLayout;horizontal=1;startSize=26;horizontalStack=0;resizeParent=1;resizeParentMax=0;resizeLast=0;collapsible=1;marginBottom=0;whiteSpace=wrap;html=1;" vertex="1" collapsed="1" parent="1">
          <mxGeometry x="-580" y="371" width="150" height="30" as="geometry">
            <mxRectangle x="-750" y="740" width="180" height="294" as="alternateBounds" />
          </mxGeometry>
        </mxCell>
        <mxCell id="6ZcL2C2GrnRnfTAZ2OoG-15" value="- _coastDistance : float" style="text;strokeColor=none;fillColor=none;align=left;verticalAlign=top;spacingLeft=4;spacingRight=4;overflow=hidden;rotatable=0;points=[[0,0.5],[1,0.5]];portConstraint=eastwest;whiteSpace=wrap;html=1;" vertex="1" parent="6ZcL2C2GrnRnfTAZ2OoG-14">
          <mxGeometry y="26" width="180" height="26" as="geometry" />
        </mxCell>
        <mxCell id="6ZcL2C2GrnRnfTAZ2OoG-16" value="- _coastTime : float" style="text;strokeColor=none;fillColor=none;align=left;verticalAlign=top;spacingLeft=4;spacingRight=4;overflow=hidden;rotatable=0;points=[[0,0.5],[1,0.5]];portConstraint=eastwest;whiteSpace=wrap;html=1;" vertex="1" parent="6ZcL2C2GrnRnfTAZ2OoG-14">
          <mxGeometry y="52" width="180" height="26" as="geometry" />
        </mxCell>
        <mxCell id="6ZcL2C2GrnRnfTAZ2OoG-17" value="- _endPoint : Vector" style="text;strokeColor=none;fillColor=none;align=left;verticalAlign=top;spacingLeft=4;spacingRight=4;overflow=hidden;rotatable=0;points=[[0,0.5],[1,0.5]];portConstraint=eastwest;whiteSpace=wrap;html=1;" vertex="1" parent="6ZcL2C2GrnRnfTAZ2OoG-14">
          <mxGeometry y="78" width="180" height="26" as="geometry" />
        </mxCell>
        <mxCell id="6ZcL2C2GrnRnfTAZ2OoG-18" value="- _normalisedAccel : float" style="text;strokeColor=none;fillColor=none;align=left;verticalAlign=top;spacingLeft=4;spacingRight=4;overflow=hidden;rotatable=0;points=[[0,0.5],[1,0.5]];portConstraint=eastwest;whiteSpace=wrap;html=1;" vertex="1" parent="6ZcL2C2GrnRnfTAZ2OoG-14">
          <mxGeometry y="104" width="180" height="26" as="geometry" />
        </mxCell>
        <mxCell id="6ZcL2C2GrnRnfTAZ2OoG-19" value="- _normalisedVelocity : float" style="text;strokeColor=none;fillColor=none;align=left;verticalAlign=top;spacingLeft=4;spacingRight=4;overflow=hidden;rotatable=0;points=[[0,0.5],[1,0.5]];portConstraint=eastwest;whiteSpace=wrap;html=1;" vertex="1" parent="6ZcL2C2GrnRnfTAZ2OoG-14">
          <mxGeometry y="130" width="180" height="26" as="geometry" />
        </mxCell>
        <mxCell id="6ZcL2C2GrnRnfTAZ2OoG-20" value="- _rampDistance : float" style="text;strokeColor=none;fillColor=none;align=left;verticalAlign=top;spacingLeft=4;spacingRight=4;overflow=hidden;rotatable=0;points=[[0,0.5],[1,0.5]];portConstraint=eastwest;whiteSpace=wrap;html=1;" vertex="1" parent="6ZcL2C2GrnRnfTAZ2OoG-14">
          <mxGeometry y="156" width="180" height="26" as="geometry" />
        </mxCell>
        <mxCell id="6ZcL2C2GrnRnfTAZ2OoG-21" value="- _rampTime : float" style="text;strokeColor=none;fillColor=none;align=left;verticalAlign=top;spacingLeft=4;spacingRight=4;overflow=hidden;rotatable=0;points=[[0,0.5],[1,0.5]];portConstraint=eastwest;whiteSpace=wrap;html=1;" vertex="1" parent="6ZcL2C2GrnRnfTAZ2OoG-14">
          <mxGeometry y="182" width="180" height="26" as="geometry" />
        </mxCell>
        <mxCell id="6ZcL2C2GrnRnfTAZ2OoG-22" value="- _startPoint : Vector" style="text;strokeColor=none;fillColor=none;align=left;verticalAlign=top;spacingLeft=4;spacingRight=4;overflow=hidden;rotatable=0;points=[[0,0.5],[1,0.5]];portConstraint=eastwest;whiteSpace=wrap;html=1;" vertex="1" parent="6ZcL2C2GrnRnfTAZ2OoG-14">
          <mxGeometry y="208" width="180" height="26" as="geometry" />
        </mxCell>
        <mxCell id="6ZcL2C2GrnRnfTAZ2OoG-23" value="" style="line;strokeWidth=1;fillColor=none;align=left;verticalAlign=middle;spacingTop=-1;spacingLeft=3;spacingRight=3;rotatable=0;labelPosition=right;points=[];portConstraint=eastwest;strokeColor=inherit;" vertex="1" parent="6ZcL2C2GrnRnfTAZ2OoG-14">
          <mxGeometry y="234" width="180" height="8" as="geometry" />
        </mxCell>
        <mxCell id="6ZcL2C2GrnRnfTAZ2OoG-24" value="+ query_position(float) : Vector" style="text;strokeColor=none;fillColor=none;align=left;verticalAlign=top;spacingLeft=4;spacingRight=4;overflow=hidden;rotatable=0;points=[[0,0.5],[1,0.5]];portConstraint=eastwest;whiteSpace=wrap;html=1;" vertex="1" parent="6ZcL2C2GrnRnfTAZ2OoG-14">
          <mxGeometry y="242" width="180" height="26" as="geometry" />
        </mxCell>
        <mxCell id="6ZcL2C2GrnRnfTAZ2OoG-25" value="+ query_state(flloat) : State" style="text;strokeColor=none;fillColor=none;align=left;verticalAlign=top;spacingLeft=4;spacingRight=4;overflow=hidden;rotatable=0;points=[[0,0.5],[1,0.5]];portConstraint=eastwest;whiteSpace=wrap;html=1;" vertex="1" parent="6ZcL2C2GrnRnfTAZ2OoG-14">
          <mxGeometry y="268" width="180" height="26" as="geometry" />
        </mxCell>
        <mxCell id="6ZcL2C2GrnRnfTAZ2OoG-26" value="State" style="swimlane;fontStyle=1;align=center;verticalAlign=top;childLayout=stackLayout;horizontal=1;startSize=26;horizontalStack=0;resizeParent=1;resizeParentMax=0;resizeLast=0;collapsible=1;marginBottom=0;whiteSpace=wrap;html=1;" vertex="1" parent="1">
          <mxGeometry x="-200" y="182" width="130" height="104" as="geometry" />
        </mxCell>
        <mxCell id="6ZcL2C2GrnRnfTAZ2OoG-27" value="+ position : vector" style="text;strokeColor=none;fillColor=none;align=left;verticalAlign=top;spacingLeft=4;spacingRight=4;overflow=hidden;rotatable=0;points=[[0,0.5],[1,0.5]];portConstraint=eastwest;whiteSpace=wrap;html=1;" vertex="1" parent="6ZcL2C2GrnRnfTAZ2OoG-26">
          <mxGeometry y="26" width="130" height="26" as="geometry" />
        </mxCell>
        <mxCell id="6ZcL2C2GrnRnfTAZ2OoG-28" value="+ velocity : vector" style="text;strokeColor=none;fillColor=none;align=left;verticalAlign=top;spacingLeft=4;spacingRight=4;overflow=hidden;rotatable=0;points=[[0,0.5],[1,0.5]];portConstraint=eastwest;whiteSpace=wrap;html=1;" vertex="1" parent="6ZcL2C2GrnRnfTAZ2OoG-26">
          <mxGeometry y="52" width="130" height="26" as="geometry" />
        </mxCell>
        <mxCell id="6ZcL2C2GrnRnfTAZ2OoG-29" value="+ acceleration : vector" style="text;strokeColor=none;fillColor=none;align=left;verticalAlign=top;spacingLeft=4;spacingRight=4;overflow=hidden;rotatable=0;points=[[0,0.5],[1,0.5]];portConstraint=eastwest;whiteSpace=wrap;html=1;" vertex="1" parent="6ZcL2C2GrnRnfTAZ2OoG-26">
          <mxGeometry y="78" width="130" height="26" as="geometry" />
        </mxCell>
        <mxCell id="6ZcL2C2GrnRnfTAZ2OoG-30" value="Use" style="endArrow=open;endSize=12;dashed=1;html=1;rounded=0;" edge="1" parent="1" source="6ZcL2C2GrnRnfTAZ2OoG-1" target="6ZcL2C2GrnRnfTAZ2OoG-26">
          <mxGeometry width="160" relative="1" as="geometry">
            <mxPoint x="-270" y="990" as="sourcePoint" />
            <mxPoint x="-110" y="990" as="targetPoint" />
          </mxGeometry>
        </mxCell>
        <mxCell id="6ZcL2C2GrnRnfTAZ2OoG-31" value="Extends" style="endArrow=block;endSize=16;endFill=0;html=1;rounded=0;edgeStyle=orthogonalEdgeStyle;" edge="1" parent="1" source="6ZcL2C2GrnRnfTAZ2OoG-8" target="6ZcL2C2GrnRnfTAZ2OoG-1">
          <mxGeometry x="-0.4029" width="160" relative="1" as="geometry">
            <mxPoint x="-450" y="920" as="sourcePoint" />
            <mxPoint x="-290" y="920" as="targetPoint" />
            <mxPoint as="offset" />
          </mxGeometry>
        </mxCell>
        <mxCell id="6ZcL2C2GrnRnfTAZ2OoG-32" value="Extends" style="endArrow=block;endSize=16;endFill=0;html=1;rounded=0;edgeStyle=orthogonalEdgeStyle;" edge="1" parent="1" source="6ZcL2C2GrnRnfTAZ2OoG-14" target="6ZcL2C2GrnRnfTAZ2OoG-1">
          <mxGeometry x="-0.5042" width="160" relative="1" as="geometry">
            <mxPoint x="-192" y="828" as="sourcePoint" />
            <mxPoint x="-239" y="890" as="targetPoint" />
            <mxPoint as="offset" />
          </mxGeometry>
        </mxCell>
        <mxCell id="MwMCWZ_2fzbEObc1voKZ-1" value="n" style="endArrow=open;html=1;endSize=12;startArrow=diamondThin;startSize=14;startFill=1;edgeStyle=orthogonalEdgeStyle;align=left;verticalAlign=bottom;rounded=0;" edge="1" parent="1" source="0T3obRGXh_1cVIc16mlH-2" target="6ZcL2C2GrnRnfTAZ2OoG-14">
          <mxGeometry x="-1" y="3" relative="1" as="geometry">
            <mxPoint x="-490" y="330" as="sourcePoint" />
            <mxPoint x="-330" y="330" as="targetPoint" />
          </mxGeometry>
        </mxCell>
        <mxCell id="MwMCWZ_2fzbEObc1voKZ-2" value="n" style="endArrow=open;html=1;endSize=12;startArrow=diamondThin;startSize=14;startFill=1;edgeStyle=orthogonalEdgeStyle;align=left;verticalAlign=bottom;rounded=0;" edge="1" parent="1" source="0T3obRGXh_1cVIc16mlH-1" target="6ZcL2C2GrnRnfTAZ2OoG-8">
          <mxGeometry x="-1" y="3" relative="1" as="geometry">
            <mxPoint x="-490" y="330" as="sourcePoint" />
            <mxPoint x="-330" y="330" as="targetPoint" />
          </mxGeometry>
        </mxCell>
      </root>
    </mxGraphModel>
  </diagram>
  <diagram id="_HYDikgXZ6VVpXpmSvQK" name="Cartesian">
    <mxGraphModel dx="1862" dy="662" grid="1" gridSize="10" guides="1" tooltips="1" connect="1" arrows="1" fold="1" page="1" pageScale="1" pageWidth="827" pageHeight="1169" math="0" shadow="0">
      <root>
        <mxCell id="0" />
        <mxCell id="1" parent="0" />
        <mxCell id="HxM2TgPy1vGi20dEQ5MH-1" value="CartesianTrajectory" style="swimlane;fontStyle=1;align=center;verticalAlign=top;childLayout=stackLayout;horizontal=1;startSize=26;horizontalStack=0;resizeParent=1;resizeParentMax=0;resizeLast=0;collapsible=1;marginBottom=0;whiteSpace=wrap;html=1;" vertex="1" parent="1">
          <mxGeometry x="-760" y="50" width="210" height="112" as="geometry" />
        </mxCell>
        <mxCell id="HxM2TgPy1vGi20dEQ5MH-2" value="- _trajectory : ClassType" style="text;strokeColor=none;fillColor=none;align=left;verticalAlign=top;spacingLeft=4;spacingRight=4;overflow=hidden;rotatable=0;points=[[0,0.5],[1,0.5]];portConstraint=eastwest;whiteSpace=wrap;html=1;" vertex="1" parent="HxM2TgPy1vGi20dEQ5MH-1">
          <mxGeometry y="26" width="210" height="26" as="geometry" />
        </mxCell>
        <mxCell id="HxM2TgPy1vGi20dEQ5MH-3" value="" style="line;strokeWidth=1;fillColor=none;align=left;verticalAlign=middle;spacingTop=-1;spacingLeft=3;spacingRight=3;rotatable=0;labelPosition=right;points=[];portConstraint=eastwest;strokeColor=inherit;" vertex="1" parent="HxM2TgPy1vGi20dEQ5MH-1">
          <mxGeometry y="52" width="210" height="8" as="geometry" />
        </mxCell>
        <mxCell id="HxM2TgPy1vGi20dEQ5MH-4" value="+ query_pose(float) : Pose" style="text;strokeColor=none;fillColor=none;align=left;verticalAlign=top;spacingLeft=4;spacingRight=4;overflow=hidden;rotatable=0;points=[[0,0.5],[1,0.5]];portConstraint=eastwest;whiteSpace=wrap;html=1;" vertex="1" parent="HxM2TgPy1vGi20dEQ5MH-1">
          <mxGeometry y="60" width="210" height="26" as="geometry" />
        </mxCell>
        <mxCell id="HxM2TgPy1vGi20dEQ5MH-5" value="+ query_state(float) : CartesianState" style="text;strokeColor=none;fillColor=none;align=left;verticalAlign=top;spacingLeft=4;spacingRight=4;overflow=hidden;rotatable=0;points=[[0,0.5],[1,0.5]];portConstraint=eastwest;whiteSpace=wrap;html=1;" vertex="1" parent="HxM2TgPy1vGi20dEQ5MH-1">
          <mxGeometry y="86" width="210" height="26" as="geometry" />
        </mxCell>
        <mxCell id="HxM2TgPy1vGi20dEQ5MH-6" value="CartesianState" style="swimlane;fontStyle=1;align=center;verticalAlign=top;childLayout=stackLayout;horizontal=1;startSize=26;horizontalStack=0;resizeParent=1;resizeParentMax=0;resizeLast=0;collapsible=1;marginBottom=0;whiteSpace=wrap;html=1;" vertex="1" parent="1">
          <mxGeometry x="-810" y="222" width="130" height="104" as="geometry" />
        </mxCell>
        <mxCell id="HxM2TgPy1vGi20dEQ5MH-7" value="+ pose : Pose" style="text;strokeColor=none;fillColor=none;align=left;verticalAlign=top;spacingLeft=4;spacingRight=4;overflow=hidden;rotatable=0;points=[[0,0.5],[1,0.5]];portConstraint=eastwest;whiteSpace=wrap;html=1;" vertex="1" parent="HxM2TgPy1vGi20dEQ5MH-6">
          <mxGeometry y="26" width="130" height="26" as="geometry" />
        </mxCell>
        <mxCell id="HxM2TgPy1vGi20dEQ5MH-8" value="+ twist : Vector" style="text;strokeColor=none;fillColor=none;align=left;verticalAlign=top;spacingLeft=4;spacingRight=4;overflow=hidden;rotatable=0;points=[[0,0.5],[1,0.5]];portConstraint=eastwest;whiteSpace=wrap;html=1;" vertex="1" parent="HxM2TgPy1vGi20dEQ5MH-6">
          <mxGeometry y="52" width="130" height="26" as="geometry" />
        </mxCell>
        <mxCell id="HxM2TgPy1vGi20dEQ5MH-9" value="+ acceleration : Vector" style="text;strokeColor=none;fillColor=none;align=left;verticalAlign=top;spacingLeft=4;spacingRight=4;overflow=hidden;rotatable=0;points=[[0,0.5],[1,0.5]];portConstraint=eastwest;whiteSpace=wrap;html=1;" vertex="1" parent="HxM2TgPy1vGi20dEQ5MH-6">
          <mxGeometry y="78" width="130" height="26" as="geometry" />
        </mxCell>
        <mxCell id="HxM2TgPy1vGi20dEQ5MH-10" value="Pose" style="swimlane;html=1;fontStyle=1;align=center;verticalAlign=top;childLayout=stackLayout;horizontal=1;startSize=26;horizontalStack=0;resizeParent=1;resizeLast=0;collapsible=1;marginBottom=0;swimlaneFillColor=none;rounded=0;shadow=0;comic=0;labelBackgroundColor=none;strokeWidth=1;fillColor=none;fontFamily=Verdana;fontSize=12" vertex="1" collapsed="1" parent="1">
          <mxGeometry x="-620" y="222" width="100" height="30" as="geometry">
            <mxRectangle x="550" y="800" width="160" height="320" as="alternateBounds" />
          </mxGeometry>
        </mxCell>
        <mxCell id="HxM2TgPy1vGi20dEQ5MH-11" value="- _translation : Vector" style="text;html=1;strokeColor=none;fillColor=none;align=left;verticalAlign=top;spacingLeft=4;spacingRight=4;whiteSpace=wrap;overflow=hidden;rotatable=0;points=[[0,0.5],[1,0.5]];portConstraint=eastwest;" vertex="1" parent="HxM2TgPy1vGi20dEQ5MH-10">
          <mxGeometry y="26" width="160" height="26" as="geometry" />
        </mxCell>
        <mxCell id="HxM2TgPy1vGi20dEQ5MH-12" value="- _quaternion : Quaternion" style="text;html=1;strokeColor=none;fillColor=none;align=left;verticalAlign=top;spacingLeft=4;spacingRight=4;whiteSpace=wrap;overflow=hidden;rotatable=0;points=[[0,0.5],[1,0.5]];portConstraint=eastwest;" vertex="1" parent="HxM2TgPy1vGi20dEQ5MH-10">
          <mxGeometry y="52" width="160" height="26" as="geometry" />
        </mxCell>
        <mxCell id="HxM2TgPy1vGi20dEQ5MH-13" value="" style="line;html=1;strokeWidth=1;fillColor=none;align=left;verticalAlign=middle;spacingTop=-1;spacingLeft=3;spacingRight=3;rotatable=0;labelPosition=right;points=[];portConstraint=eastwest;" vertex="1" parent="HxM2TgPy1vGi20dEQ5MH-10">
          <mxGeometry y="78" width="160" height="8" as="geometry" />
        </mxCell>
        <mxCell id="HxM2TgPy1vGi20dEQ5MH-14" value="+ as_matrix() : Matrix" style="text;html=1;strokeColor=none;fillColor=none;align=left;verticalAlign=top;spacingLeft=4;spacingRight=4;whiteSpace=wrap;overflow=hidden;rotatable=0;points=[[0,0.5],[1,0.5]];portConstraint=eastwest;" vertex="1" parent="HxM2TgPy1vGi20dEQ5MH-10">
          <mxGeometry y="86" width="160" height="26" as="geometry" />
        </mxCell>
        <mxCell id="HxM2TgPy1vGi20dEQ5MH-15" value="+ inverse() : Pose" style="text;html=1;strokeColor=none;fillColor=none;align=left;verticalAlign=top;spacingLeft=4;spacingRight=4;whiteSpace=wrap;overflow=hidden;rotatable=0;points=[[0,0.5],[1,0.5]];portConstraint=eastwest;" vertex="1" parent="HxM2TgPy1vGi20dEQ5MH-10">
          <mxGeometry y="112" width="160" height="26" as="geometry" />
        </mxCell>
        <mxCell id="HxM2TgPy1vGi20dEQ5MH-16" value="+ error(Pose) : Pose" style="text;html=1;strokeColor=none;fillColor=none;align=left;verticalAlign=top;spacingLeft=4;spacingRight=4;whiteSpace=wrap;overflow=hidden;rotatable=0;points=[[0,0.5],[1,0.5]];portConstraint=eastwest;" vertex="1" parent="HxM2TgPy1vGi20dEQ5MH-10">
          <mxGeometry y="138" width="160" height="26" as="geometry" />
        </mxCell>
        <mxCell id="HxM2TgPy1vGi20dEQ5MH-17" value="+ quaternion() : Quaternion" style="text;html=1;strokeColor=none;fillColor=none;align=left;verticalAlign=top;spacingLeft=4;spacingRight=4;whiteSpace=wrap;overflow=hidden;rotatable=0;points=[[0,0.5],[1,0.5]];portConstraint=eastwest;" vertex="1" parent="HxM2TgPy1vGi20dEQ5MH-10">
          <mxGeometry y="164" width="160" height="26" as="geometry" />
        </mxCell>
        <mxCell id="HxM2TgPy1vGi20dEQ5MH-18" value="+ rotation() : Matrix" style="text;html=1;strokeColor=none;fillColor=none;align=left;verticalAlign=top;spacingLeft=4;spacingRight=4;whiteSpace=wrap;overflow=hidden;rotatable=0;points=[[0,0.5],[1,0.5]];portConstraint=eastwest;" vertex="1" parent="HxM2TgPy1vGi20dEQ5MH-10">
          <mxGeometry y="190" width="160" height="26" as="geometry" />
        </mxCell>
        <mxCell id="HxM2TgPy1vGi20dEQ5MH-19" value="+ translation() : Vector" style="text;html=1;strokeColor=none;fillColor=none;align=left;verticalAlign=top;spacingLeft=4;spacingRight=4;whiteSpace=wrap;overflow=hidden;rotatable=0;points=[[0,0.5],[1,0.5]];portConstraint=eastwest;" vertex="1" parent="HxM2TgPy1vGi20dEQ5MH-10">
          <mxGeometry y="216" width="160" height="26" as="geometry" />
        </mxCell>
        <mxCell id="HxM2TgPy1vGi20dEQ5MH-20" value="+ operator*(Pose) : Pose" style="text;html=1;strokeColor=none;fillColor=none;align=left;verticalAlign=top;spacingLeft=4;spacingRight=4;whiteSpace=wrap;overflow=hidden;rotatable=0;points=[[0,0.5],[1,0.5]];portConstraint=eastwest;" vertex="1" parent="HxM2TgPy1vGi20dEQ5MH-10">
          <mxGeometry y="242" width="160" height="26" as="geometry" />
        </mxCell>
        <mxCell id="HxM2TgPy1vGi20dEQ5MH-21" value="+ operator*(Vector) : Vector" style="text;html=1;strokeColor=none;fillColor=none;align=left;verticalAlign=top;spacingLeft=4;spacingRight=4;whiteSpace=wrap;overflow=hidden;rotatable=0;points=[[0,0.5],[1,0.5]];portConstraint=eastwest;" vertex="1" parent="HxM2TgPy1vGi20dEQ5MH-10">
          <mxGeometry y="268" width="160" height="26" as="geometry" />
        </mxCell>
        <mxCell id="HxM2TgPy1vGi20dEQ5MH-22" value="+ operator*=(Pose)" style="text;html=1;strokeColor=none;fillColor=none;align=left;verticalAlign=top;spacingLeft=4;spacingRight=4;whiteSpace=wrap;overflow=hidden;rotatable=0;points=[[0,0.5],[1,0.5]];portConstraint=eastwest;" vertex="1" parent="HxM2TgPy1vGi20dEQ5MH-10">
          <mxGeometry y="294" width="160" height="26" as="geometry" />
        </mxCell>
        <mxCell id="HxM2TgPy1vGi20dEQ5MH-23" value="Use" style="endArrow=open;endSize=12;dashed=1;html=1;rounded=0;" edge="1" parent="1" source="HxM2TgPy1vGi20dEQ5MH-1" target="HxM2TgPy1vGi20dEQ5MH-6">
          <mxGeometry width="160" relative="1" as="geometry">
            <mxPoint x="-480" y="38" as="sourcePoint" />
            <mxPoint x="-320" y="38" as="targetPoint" />
          </mxGeometry>
        </mxCell>
        <mxCell id="HxM2TgPy1vGi20dEQ5MH-24" value="Use" style="endArrow=open;endSize=12;dashed=1;html=1;rounded=0;" edge="1" parent="1" source="HxM2TgPy1vGi20dEQ5MH-1" target="HxM2TgPy1vGi20dEQ5MH-10">
          <mxGeometry width="160" relative="1" as="geometry">
            <mxPoint x="-390" y="169" as="sourcePoint" />
            <mxPoint x="-300" y="199" as="targetPoint" />
          </mxGeometry>
        </mxCell>
        <mxCell id="HxM2TgPy1vGi20dEQ5MH-25" value="Use" style="endArrow=open;endSize=12;dashed=1;html=1;rounded=0;exitX=1.022;exitY=0.111;exitDx=0;exitDy=0;exitPerimeter=0;" edge="1" parent="1" source="HxM2TgPy1vGi20dEQ5MH-6" target="HxM2TgPy1vGi20dEQ5MH-10">
          <mxGeometry width="160" relative="1" as="geometry">
            <mxPoint x="-390" y="169" as="sourcePoint" />
            <mxPoint x="-300" y="199" as="targetPoint" />
          </mxGeometry>
        </mxCell>
        <mxCell id="38A2WH1gnUHmedgrBRed-46" value="Spline" style="swimlane;fontStyle=1;align=center;verticalAlign=top;childLayout=stackLayout;horizontal=1;startSize=26;horizontalStack=0;resizeParent=1;resizeParentMax=0;resizeLast=0;collapsible=1;marginBottom=0;whiteSpace=wrap;html=1;" vertex="1" parent="1">
          <mxGeometry x="-450" y="10" width="120" height="52" as="geometry" />
        </mxCell>
        <mxCell id="38A2WH1gnUHmedgrBRed-47" value="MultiTrapezoid" style="swimlane;fontStyle=1;align=center;verticalAlign=top;childLayout=stackLayout;horizontal=1;startSize=26;horizontalStack=0;resizeParent=1;resizeParentMax=0;resizeLast=0;collapsible=1;marginBottom=0;whiteSpace=wrap;html=1;" vertex="1" parent="1">
          <mxGeometry x="-450" y="140" width="120" height="52" as="geometry" />
        </mxCell>
        <mxCell id="38A2WH1gnUHmedgrBRed-48" value="Waypoints" style="swimlane;fontStyle=1;align=center;verticalAlign=top;childLayout=stackLayout;horizontal=1;startSize=26;horizontalStack=0;resizeParent=1;resizeParentMax=0;resizeLast=0;collapsible=1;marginBottom=0;whiteSpace=wrap;html=1;dashed=1;" vertex="1" collapsed="1" parent="1">
          <mxGeometry x="-300" y="91" width="100" height="30" as="geometry">
            <mxRectangle x="-123" y="162" width="210" height="164" as="alternateBounds" />
          </mxGeometry>
        </mxCell>
        <mxCell id="38A2WH1gnUHmedgrBRed-49" value="- _trajectory : array" style="text;strokeColor=none;fillColor=none;align=left;verticalAlign=top;spacingLeft=4;spacingRight=4;overflow=hidden;rotatable=0;points=[[0,0.5],[1,0.5]];portConstraint=eastwest;whiteSpace=wrap;html=1;" vertex="1" parent="38A2WH1gnUHmedgrBRed-48">
          <mxGeometry y="26" width="210" height="26" as="geometry" />
        </mxCell>
        <mxCell id="38A2WH1gnUHmedgrBRed-50" value="- _numberOfPoints : int" style="text;strokeColor=none;fillColor=none;align=left;verticalAlign=top;spacingLeft=4;spacingRight=4;overflow=hidden;rotatable=0;points=[[0,0.5],[1,0.5]];portConstraint=eastwest;whiteSpace=wrap;html=1;" vertex="1" parent="38A2WH1gnUHmedgrBRed-48">
          <mxGeometry y="52" width="210" height="26" as="geometry" />
        </mxCell>
        <mxCell id="38A2WH1gnUHmedgrBRed-51" value="- _times : float array" style="text;strokeColor=none;fillColor=none;align=left;verticalAlign=top;spacingLeft=4;spacingRight=4;overflow=hidden;rotatable=0;points=[[0,0.5],[1,0.5]];portConstraint=eastwest;whiteSpace=wrap;html=1;" vertex="1" parent="38A2WH1gnUHmedgrBRed-48">
          <mxGeometry y="78" width="210" height="26" as="geometry" />
        </mxCell>
        <mxCell id="38A2WH1gnUHmedgrBRed-52" value="" style="line;strokeWidth=1;fillColor=none;align=left;verticalAlign=middle;spacingTop=-1;spacingLeft=3;spacingRight=3;rotatable=0;labelPosition=right;points=[];portConstraint=eastwest;strokeColor=inherit;" vertex="1" parent="38A2WH1gnUHmedgrBRed-48">
          <mxGeometry y="104" width="210" height="8" as="geometry" />
        </mxCell>
        <mxCell id="38A2WH1gnUHmedgrBRed-53" value="+ query_position(float) : Vector" style="text;strokeColor=none;fillColor=none;align=left;verticalAlign=top;spacingLeft=4;spacingRight=4;overflow=hidden;rotatable=0;points=[[0,0.5],[1,0.5]];portConstraint=eastwest;whiteSpace=wrap;html=1;" vertex="1" parent="38A2WH1gnUHmedgrBRed-48">
          <mxGeometry y="112" width="210" height="26" as="geometry" />
        </mxCell>
        <mxCell id="38A2WH1gnUHmedgrBRed-54" value="+ query_state(float) : State" style="text;strokeColor=none;fillColor=none;align=left;verticalAlign=top;spacingLeft=4;spacingRight=4;overflow=hidden;rotatable=0;points=[[0,0.5],[1,0.5]];portConstraint=eastwest;whiteSpace=wrap;html=1;" vertex="1" parent="38A2WH1gnUHmedgrBRed-48">
          <mxGeometry y="138" width="210" height="26" as="geometry" />
        </mxCell>
        <mxCell id="38A2WH1gnUHmedgrBRed-55" value="Extends" style="endArrow=block;endSize=16;endFill=0;html=1;rounded=0;edgeStyle=orthogonalEdgeStyle;" edge="1" parent="1" source="38A2WH1gnUHmedgrBRed-46" target="38A2WH1gnUHmedgrBRed-48">
          <mxGeometry x="0.2537" width="160" relative="1" as="geometry">
            <mxPoint x="-125" y="400" as="sourcePoint" />
            <mxPoint x="35" y="400" as="targetPoint" />
            <Array as="points">
              <mxPoint x="-390" y="106" />
            </Array>
            <mxPoint as="offset" />
          </mxGeometry>
        </mxCell>
        <mxCell id="38A2WH1gnUHmedgrBRed-56" value="Extends" style="endArrow=block;endSize=16;endFill=0;html=1;rounded=0;edgeStyle=orthogonalEdgeStyle;" edge="1" parent="1" source="38A2WH1gnUHmedgrBRed-47" target="38A2WH1gnUHmedgrBRed-48">
          <mxGeometry x="0.1935" width="160" relative="1" as="geometry">
            <mxPoint x="156" y="171" as="sourcePoint" />
            <mxPoint x="75" y="219" as="targetPoint" />
            <Array as="points">
              <mxPoint x="-390" y="106" />
            </Array>
            <mxPoint as="offset" />
          </mxGeometry>
        </mxCell>
        <mxCell id="38A2WH1gnUHmedgrBRed-57" value="TrajectoryBase" style="swimlane;fontStyle=1;align=center;verticalAlign=top;childLayout=stackLayout;horizontal=1;startSize=26;horizontalStack=0;resizeParent=1;resizeParentMax=0;resizeLast=0;collapsible=1;marginBottom=0;whiteSpace=wrap;html=1;dashed=1;" vertex="1" collapsed="1" parent="1">
          <mxGeometry x="-140" y="91" width="130" height="30" as="geometry">
            <mxRectangle x="-460" y="680" width="200" height="164" as="alternateBounds" />
          </mxGeometry>
        </mxCell>
        <mxCell id="38A2WH1gnUHmedgrBRed-58" value="- _dimensions : int" style="text;strokeColor=none;fillColor=none;align=left;verticalAlign=top;spacingLeft=4;spacingRight=4;overflow=hidden;rotatable=0;points=[[0,0.5],[1,0.5]];portConstraint=eastwest;whiteSpace=wrap;html=1;" vertex="1" parent="38A2WH1gnUHmedgrBRed-57">
          <mxGeometry y="26" width="200" height="26" as="geometry" />
        </mxCell>
        <mxCell id="38A2WH1gnUHmedgrBRed-59" value="# _endTime : float" style="text;strokeColor=none;fillColor=none;align=left;verticalAlign=top;spacingLeft=4;spacingRight=4;overflow=hidden;rotatable=0;points=[[0,0.5],[1,0.5]];portConstraint=eastwest;whiteSpace=wrap;html=1;" vertex="1" parent="38A2WH1gnUHmedgrBRed-57">
          <mxGeometry y="52" width="200" height="26" as="geometry" />
        </mxCell>
        <mxCell id="38A2WH1gnUHmedgrBRed-60" value="# _startTime : float" style="text;strokeColor=none;fillColor=none;align=left;verticalAlign=top;spacingLeft=4;spacingRight=4;overflow=hidden;rotatable=0;points=[[0,0.5],[1,0.5]];portConstraint=eastwest;whiteSpace=wrap;html=1;" vertex="1" parent="38A2WH1gnUHmedgrBRed-57">
          <mxGeometry y="78" width="200" height="26" as="geometry" />
        </mxCell>
        <mxCell id="38A2WH1gnUHmedgrBRed-61" value="" style="line;strokeWidth=1;fillColor=none;align=left;verticalAlign=middle;spacingTop=-1;spacingLeft=3;spacingRight=3;rotatable=0;labelPosition=right;points=[];portConstraint=eastwest;strokeColor=inherit;" vertex="1" parent="38A2WH1gnUHmedgrBRed-57">
          <mxGeometry y="104" width="200" height="8" as="geometry" />
        </mxCell>
        <mxCell id="38A2WH1gnUHmedgrBRed-62" value="+ query_position(float) : vector = 0" style="text;strokeColor=none;fillColor=none;align=left;verticalAlign=top;spacingLeft=4;spacingRight=4;overflow=hidden;rotatable=0;points=[[0,0.5],[1,0.5]];portConstraint=eastwest;whiteSpace=wrap;html=1;" vertex="1" parent="38A2WH1gnUHmedgrBRed-57">
          <mxGeometry y="112" width="200" height="26" as="geometry" />
        </mxCell>
        <mxCell id="38A2WH1gnUHmedgrBRed-63" value="+ query_state(float) : State = 0" style="text;strokeColor=none;fillColor=none;align=left;verticalAlign=top;spacingLeft=4;spacingRight=4;overflow=hidden;rotatable=0;points=[[0,0.5],[1,0.5]];portConstraint=eastwest;whiteSpace=wrap;html=1;" vertex="1" parent="38A2WH1gnUHmedgrBRed-57">
          <mxGeometry y="138" width="200" height="26" as="geometry" />
        </mxCell>
        <mxCell id="38A2WH1gnUHmedgrBRed-64" value="Polynomial" style="swimlane;fontStyle=1;align=center;verticalAlign=top;childLayout=stackLayout;horizontal=1;startSize=26;horizontalStack=0;resizeParent=1;resizeParentMax=0;resizeLast=0;collapsible=1;marginBottom=0;whiteSpace=wrap;html=1;" vertex="1" collapsed="1" parent="1">
          <mxGeometry x="-255" y="21" width="100" height="30" as="geometry">
            <mxRectangle x="-750" y="580" width="180" height="138" as="alternateBounds" />
          </mxGeometry>
        </mxCell>
        <mxCell id="38A2WH1gnUHmedgrBRed-65" value="- _order : int" style="text;strokeColor=none;fillColor=none;align=left;verticalAlign=top;spacingLeft=4;spacingRight=4;overflow=hidden;rotatable=0;points=[[0,0.5],[1,0.5]];portConstraint=eastwest;whiteSpace=wrap;html=1;" vertex="1" parent="38A2WH1gnUHmedgrBRed-64">
          <mxGeometry y="26" width="180" height="26" as="geometry" />
        </mxCell>
        <mxCell id="38A2WH1gnUHmedgrBRed-66" value="- _coefficients : array" style="text;strokeColor=none;fillColor=none;align=left;verticalAlign=top;spacingLeft=4;spacingRight=4;overflow=hidden;rotatable=0;points=[[0,0.5],[1,0.5]];portConstraint=eastwest;whiteSpace=wrap;html=1;" vertex="1" parent="38A2WH1gnUHmedgrBRed-64">
          <mxGeometry y="52" width="180" height="26" as="geometry" />
        </mxCell>
        <mxCell id="38A2WH1gnUHmedgrBRed-67" value="" style="line;strokeWidth=1;fillColor=none;align=left;verticalAlign=middle;spacingTop=-1;spacingLeft=3;spacingRight=3;rotatable=0;labelPosition=right;points=[];portConstraint=eastwest;strokeColor=inherit;" vertex="1" parent="38A2WH1gnUHmedgrBRed-64">
          <mxGeometry y="78" width="180" height="8" as="geometry" />
        </mxCell>
        <mxCell id="38A2WH1gnUHmedgrBRed-68" value="+ query_position(float) : Vector" style="text;strokeColor=none;fillColor=none;align=left;verticalAlign=top;spacingLeft=4;spacingRight=4;overflow=hidden;rotatable=0;points=[[0,0.5],[1,0.5]];portConstraint=eastwest;whiteSpace=wrap;html=1;" vertex="1" parent="38A2WH1gnUHmedgrBRed-64">
          <mxGeometry y="86" width="180" height="26" as="geometry" />
        </mxCell>
        <mxCell id="38A2WH1gnUHmedgrBRed-69" value="+ query_state(float) : State" style="text;strokeColor=none;fillColor=none;align=left;verticalAlign=top;spacingLeft=4;spacingRight=4;overflow=hidden;rotatable=0;points=[[0,0.5],[1,0.5]];portConstraint=eastwest;whiteSpace=wrap;html=1;" vertex="1" parent="38A2WH1gnUHmedgrBRed-64">
          <mxGeometry y="112" width="180" height="26" as="geometry" />
        </mxCell>
        <mxCell id="38A2WH1gnUHmedgrBRed-70" value="TrapezoidalVelocity" style="swimlane;fontStyle=1;align=center;verticalAlign=top;childLayout=stackLayout;horizontal=1;startSize=26;horizontalStack=0;resizeParent=1;resizeParentMax=0;resizeLast=0;collapsible=1;marginBottom=0;whiteSpace=wrap;html=1;" vertex="1" collapsed="1" parent="1">
          <mxGeometry x="-290" y="151" width="150" height="30" as="geometry">
            <mxRectangle x="-750" y="740" width="180" height="294" as="alternateBounds" />
          </mxGeometry>
        </mxCell>
        <mxCell id="38A2WH1gnUHmedgrBRed-71" value="- _coastDistance : float" style="text;strokeColor=none;fillColor=none;align=left;verticalAlign=top;spacingLeft=4;spacingRight=4;overflow=hidden;rotatable=0;points=[[0,0.5],[1,0.5]];portConstraint=eastwest;whiteSpace=wrap;html=1;" vertex="1" parent="38A2WH1gnUHmedgrBRed-70">
          <mxGeometry y="26" width="180" height="26" as="geometry" />
        </mxCell>
        <mxCell id="38A2WH1gnUHmedgrBRed-72" value="- _coastTime : float" style="text;strokeColor=none;fillColor=none;align=left;verticalAlign=top;spacingLeft=4;spacingRight=4;overflow=hidden;rotatable=0;points=[[0,0.5],[1,0.5]];portConstraint=eastwest;whiteSpace=wrap;html=1;" vertex="1" parent="38A2WH1gnUHmedgrBRed-70">
          <mxGeometry y="52" width="180" height="26" as="geometry" />
        </mxCell>
        <mxCell id="38A2WH1gnUHmedgrBRed-73" value="- _endPoint : Vector" style="text;strokeColor=none;fillColor=none;align=left;verticalAlign=top;spacingLeft=4;spacingRight=4;overflow=hidden;rotatable=0;points=[[0,0.5],[1,0.5]];portConstraint=eastwest;whiteSpace=wrap;html=1;" vertex="1" parent="38A2WH1gnUHmedgrBRed-70">
          <mxGeometry y="78" width="180" height="26" as="geometry" />
        </mxCell>
        <mxCell id="38A2WH1gnUHmedgrBRed-74" value="- _normalisedAccel : float" style="text;strokeColor=none;fillColor=none;align=left;verticalAlign=top;spacingLeft=4;spacingRight=4;overflow=hidden;rotatable=0;points=[[0,0.5],[1,0.5]];portConstraint=eastwest;whiteSpace=wrap;html=1;" vertex="1" parent="38A2WH1gnUHmedgrBRed-70">
          <mxGeometry y="104" width="180" height="26" as="geometry" />
        </mxCell>
        <mxCell id="38A2WH1gnUHmedgrBRed-75" value="- _normalisedVelocity : float" style="text;strokeColor=none;fillColor=none;align=left;verticalAlign=top;spacingLeft=4;spacingRight=4;overflow=hidden;rotatable=0;points=[[0,0.5],[1,0.5]];portConstraint=eastwest;whiteSpace=wrap;html=1;" vertex="1" parent="38A2WH1gnUHmedgrBRed-70">
          <mxGeometry y="130" width="180" height="26" as="geometry" />
        </mxCell>
        <mxCell id="38A2WH1gnUHmedgrBRed-76" value="- _rampDistance : float" style="text;strokeColor=none;fillColor=none;align=left;verticalAlign=top;spacingLeft=4;spacingRight=4;overflow=hidden;rotatable=0;points=[[0,0.5],[1,0.5]];portConstraint=eastwest;whiteSpace=wrap;html=1;" vertex="1" parent="38A2WH1gnUHmedgrBRed-70">
          <mxGeometry y="156" width="180" height="26" as="geometry" />
        </mxCell>
        <mxCell id="38A2WH1gnUHmedgrBRed-77" value="- _rampTime : float" style="text;strokeColor=none;fillColor=none;align=left;verticalAlign=top;spacingLeft=4;spacingRight=4;overflow=hidden;rotatable=0;points=[[0,0.5],[1,0.5]];portConstraint=eastwest;whiteSpace=wrap;html=1;" vertex="1" parent="38A2WH1gnUHmedgrBRed-70">
          <mxGeometry y="182" width="180" height="26" as="geometry" />
        </mxCell>
        <mxCell id="38A2WH1gnUHmedgrBRed-78" value="- _startPoint : Vector" style="text;strokeColor=none;fillColor=none;align=left;verticalAlign=top;spacingLeft=4;spacingRight=4;overflow=hidden;rotatable=0;points=[[0,0.5],[1,0.5]];portConstraint=eastwest;whiteSpace=wrap;html=1;" vertex="1" parent="38A2WH1gnUHmedgrBRed-70">
          <mxGeometry y="208" width="180" height="26" as="geometry" />
        </mxCell>
        <mxCell id="38A2WH1gnUHmedgrBRed-79" value="" style="line;strokeWidth=1;fillColor=none;align=left;verticalAlign=middle;spacingTop=-1;spacingLeft=3;spacingRight=3;rotatable=0;labelPosition=right;points=[];portConstraint=eastwest;strokeColor=inherit;" vertex="1" parent="38A2WH1gnUHmedgrBRed-70">
          <mxGeometry y="234" width="180" height="8" as="geometry" />
        </mxCell>
        <mxCell id="38A2WH1gnUHmedgrBRed-80" value="+ query_position(float) : Vector" style="text;strokeColor=none;fillColor=none;align=left;verticalAlign=top;spacingLeft=4;spacingRight=4;overflow=hidden;rotatable=0;points=[[0,0.5],[1,0.5]];portConstraint=eastwest;whiteSpace=wrap;html=1;" vertex="1" parent="38A2WH1gnUHmedgrBRed-70">
          <mxGeometry y="242" width="180" height="26" as="geometry" />
        </mxCell>
        <mxCell id="38A2WH1gnUHmedgrBRed-81" value="+ query_state(flloat) : State" style="text;strokeColor=none;fillColor=none;align=left;verticalAlign=top;spacingLeft=4;spacingRight=4;overflow=hidden;rotatable=0;points=[[0,0.5],[1,0.5]];portConstraint=eastwest;whiteSpace=wrap;html=1;" vertex="1" parent="38A2WH1gnUHmedgrBRed-70">
          <mxGeometry y="268" width="180" height="26" as="geometry" />
        </mxCell>
        <mxCell id="38A2WH1gnUHmedgrBRed-87" value="Extends" style="endArrow=block;endSize=16;endFill=0;html=1;rounded=0;edgeStyle=orthogonalEdgeStyle;" edge="1" parent="1" source="38A2WH1gnUHmedgrBRed-64" target="38A2WH1gnUHmedgrBRed-57">
          <mxGeometry x="-0.4029" width="160" relative="1" as="geometry">
            <mxPoint x="50" y="930" as="sourcePoint" />
            <mxPoint x="210" y="930" as="targetPoint" />
            <mxPoint as="offset" />
          </mxGeometry>
        </mxCell>
        <mxCell id="38A2WH1gnUHmedgrBRed-88" value="Extends" style="endArrow=block;endSize=16;endFill=0;html=1;rounded=0;edgeStyle=orthogonalEdgeStyle;" edge="1" parent="1" source="38A2WH1gnUHmedgrBRed-70" target="38A2WH1gnUHmedgrBRed-57">
          <mxGeometry x="-0.5042" width="160" relative="1" as="geometry">
            <mxPoint x="308" y="838" as="sourcePoint" />
            <mxPoint x="261" y="900" as="targetPoint" />
            <mxPoint as="offset" />
            <Array as="points">
              <mxPoint x="-75" y="166" />
            </Array>
          </mxGeometry>
        </mxCell>
        <mxCell id="38A2WH1gnUHmedgrBRed-89" value="n" style="endArrow=open;html=1;endSize=12;startArrow=diamondThin;startSize=14;startFill=1;edgeStyle=orthogonalEdgeStyle;align=left;verticalAlign=bottom;rounded=0;" edge="1" parent="1" source="38A2WH1gnUHmedgrBRed-47" target="38A2WH1gnUHmedgrBRed-70">
          <mxGeometry x="-1" y="3" relative="1" as="geometry">
            <mxPoint x="10" y="340" as="sourcePoint" />
            <mxPoint x="170" y="340" as="targetPoint" />
          </mxGeometry>
        </mxCell>
        <mxCell id="38A2WH1gnUHmedgrBRed-90" value="n" style="endArrow=open;html=1;endSize=12;startArrow=diamondThin;startSize=14;startFill=1;edgeStyle=orthogonalEdgeStyle;align=left;verticalAlign=bottom;rounded=0;" edge="1" parent="1" source="38A2WH1gnUHmedgrBRed-46" target="38A2WH1gnUHmedgrBRed-64">
          <mxGeometry x="-1" y="3" relative="1" as="geometry">
            <mxPoint x="10" y="340" as="sourcePoint" />
            <mxPoint x="170" y="340" as="targetPoint" />
          </mxGeometry>
        </mxCell>
        <mxCell id="KDuC0FvWT7TJCSIu6r18-1" value="1" style="endArrow=open;html=1;endSize=12;startArrow=diamondThin;startSize=14;startFill=1;edgeStyle=orthogonalEdgeStyle;align=left;verticalAlign=bottom;rounded=0;" edge="1" parent="1" source="HxM2TgPy1vGi20dEQ5MH-1" target="38A2WH1gnUHmedgrBRed-46">
          <mxGeometry x="-1" y="3" relative="1" as="geometry">
            <mxPoint x="-450" y="120" as="sourcePoint" />
            <mxPoint x="-290" y="120" as="targetPoint" />
          </mxGeometry>
        </mxCell>
        <mxCell id="KDuC0FvWT7TJCSIu6r18-2" value="n" style="endArrow=open;html=1;endSize=12;startArrow=diamondThin;startSize=14;startFill=1;edgeStyle=orthogonalEdgeStyle;align=left;verticalAlign=bottom;rounded=0;" edge="1" parent="1" source="HxM2TgPy1vGi20dEQ5MH-1" target="38A2WH1gnUHmedgrBRed-47">
          <mxGeometry x="-1" y="3" relative="1" as="geometry">
            <mxPoint x="-450" y="120" as="sourcePoint" />
            <mxPoint x="-290" y="120" as="targetPoint" />
          </mxGeometry>
        </mxCell>
      </root>
    </mxGraphModel>
  </diagram>
</mxfile>
